<svg xmlns="http://www.w3.org/2000/svg" xmlns:xlink="http://www.w3.org/1999/xlink" version="1.1" x="0px" y="0px" viewBox="0 0 100 125" enable-background="new 0 0 100 100" xml:space="preserve"><rect fill="none" width="100" height="100"/><path d="M49.435,79.597c-2.176,0-3.945,1.77-3.945,3.948c0,2.174,1.769,3.942,3.945,3.942c2.173,0,3.942-1.769,3.942-3.942  C53.377,81.366,51.607,79.597,49.435,79.597z M49.435,84.648c-0.607,0-1.106-0.494-1.106-1.104c0-0.61,0.499-1.109,1.106-1.109  c0.607,0,1.103,0.499,1.103,1.109C50.538,84.154,50.042,84.648,49.435,84.648z M37.993,74.546c-2.175,0-3.944,1.769-3.944,3.948  c0,2.173,1.769,3.941,3.944,3.941c2.173,0,3.942-1.769,3.942-3.941C41.935,76.314,40.167,74.546,37.993,74.546z M37.993,79.597  c-0.608,0-1.105-0.493-1.105-1.103c0-0.61,0.497-1.109,1.105-1.109s1.104,0.499,1.104,1.109  C39.097,79.104,38.602,79.597,37.993,79.597z M59.806,72.577c-2.174,0-3.942,1.77-3.942,3.942c0,2.18,1.769,3.948,3.942,3.948  s3.942-1.769,3.942-3.948C63.748,74.347,61.979,72.577,59.806,72.577z M59.806,77.629c-0.61,0-1.104-0.499-1.104-1.109  c0-0.609,0.493-1.104,1.104-1.104c0.609,0,1.104,0.494,1.104,1.104C60.909,77.13,60.415,77.629,59.806,77.629z M79.5,81.316  L64.688,56.92c-2.861-4.708-5.278-13.352-5.278-18.863V23.392h6.097c1.568,0,2.839-1.27,2.839-2.839  c0-1.569-1.271-2.839-2.839-2.839h-8.204l3.463-10.862c0.139-0.433,0.062-0.904-0.205-1.27C60.291,5.216,59.866,5,59.412,5H40.588  c-0.455,0-0.881,0.216-1.147,0.582c-0.268,0.366-0.344,0.837-0.207,1.27l3.464,10.862h-8.203c-1.568,0-2.839,1.27-2.839,2.839  c0,1.569,1.271,2.839,2.839,2.839h6.096v14.666c0,5.511-2.417,14.155-5.28,18.868L20.502,81.311  c-2.04,3.359-2.348,6.819-0.845,9.486C21.16,93.47,24.274,95,28.204,95h43.592c3.928,0,7.044-1.53,8.547-4.203  C81.846,88.13,81.538,84.67,79.5,81.316z M57.472,7.839l-3.149,9.875h-8.645l-3.149-9.875H57.472z M40.164,59.869  c3.424-5.633,6.105-15.22,6.105-21.812V23.392h7.463v14.666c0,6.592,2.681,16.179,6.102,21.812l6.094,10.03  c-0.951-0.199-1.716-0.477-2.501-0.76c-1.713-0.615-3.487-1.253-6.991-1.253c-3.502,0-5.275,0.638-6.992,1.253  c-1.553,0.561-3.022,1.093-6.027,1.093c-3.005,0-4.472-0.532-6.025-1.093c-0.74-0.266-1.5-0.532-2.396-0.754L40.164,59.869z   M75.397,88.014c-0.464,0.82-1.808,1.309-3.602,1.309H28.204c-1.792,0-3.138-0.488-3.599-1.309c-0.461-0.82-0.18-2.224,0.75-3.754  l8.066-13.284c1.177,0.205,2.096,0.51,3.007,0.837c1.713,0.621,3.486,1.259,6.987,1.259c3.504,0,5.276-0.638,6.992-1.259  c1.553-0.56,3.022-1.087,6.027-1.087c3.011,0,4.478,0.527,6.032,1.087c1.42,0.516,2.897,1.031,5.348,1.197l6.831,11.25  C75.574,85.79,75.857,87.193,75.397,88.014z"/><text x="0" y="115" fill="#000000" font-size="5px" font-weight="bold" font-family="'Helvetica Neue', Helvetica, Arial-Unicode, Arial, Sans-serif">Created by hunotika</text><text x="0" y="120" fill="#000000" font-size="5px" font-weight="bold" font-family="'Helvetica Neue', Helvetica, Arial-Unicode, Arial, Sans-serif">from the Noun Project</text></svg>