<svg xmlns="http://www.w3.org/2000/svg" xmlns:xlink="http://www.w3.org/1999/xlink" xml:space="preserve" version="1.1" style="shape-rendering:geometricPrecision;text-rendering:geometricPrecision;image-rendering:optimizeQuality;" viewBox="0 0 50800 63500" x="0px" y="0px" fill-rule="evenodd" clip-rule="evenodd"><defs><style type="text/css">
   
    .fil0 {fill:black}
   
  </style></defs><g><path class="fil0" d="M6975 38620c288,-145 904,-230 1251,-205 -257,196 -859,251 -1251,205zm19979 -985l-592 154c87,-142 -1,-70 214,-193l661 -492c223,-169 670,-581 923,-615 -2,160 16,87 -69,192l-757 694c-154,105 -241,137 -380,260zm4659 -4769c84,-118 154,-170 260,-263 -42,174 -95,240 -260,263zm-318 28c227,-396 556,-703 793,-1138 13,411 -484,1036 -793,1138zm704 -1251c-68,243 48,63 -145,163 76,-179 -31,-89 145,-163zm-18561 -1158l74 594c-239,-24 -348,-66 -488,-169 60,-209 223,-375 414,-425zm18206 -129c88,-222 99,-199 242,-357 127,-141 145,-206 288,-302 -55,327 -194,608 -530,659zm-13400 -1432c451,32 472,-226 896,-89 333,107 2375,207 3231,368 -140,96 -196,104 -370,177l-1887 1062c-249,158 -524,258 -719,475 -655,-64 -1429,-1169 -2981,-627 -119,-521 349,-1151 288,-1580l1573 79c22,44 74,-54 -31,135zm14400 14l20 -285c220,115 126,160 -20,285zm-221 -1006c95,261 6,98 -24,149 -13,-30 -117,28 24,-149zm-2911 -259l132 48c-453,342 -56,705 -824,963 -212,71 -241,136 -460,157 29,-176 515,-650 663,-781 56,-49 101,-77 166,-123 160,-116 208,-132 323,-264zm-61 649c169,-315 194,-320 484,-510 235,-154 335,-286 569,-417 -124,413 -729,836 -1053,927zm2545 -1170c22,-297 116,-603 357,-776 12,344 -161,565 -357,776zm-130 -1967c48,-225 62,-300 145,-503 160,251 155,465 33,669 -59,-58 -129,-120 -178,-166zm-8432 -521c33,-19 119,-97 232,-80 345,53 53,-29 154,115l-386 -35zm1788 -509c120,172 108,99 203,294l-462 17 259 -311zm-2652 317c127,-117 142,-133 338,-172 -88,205 -78,203 -338,172zm-1958 -164c-42,30 15,72 -222,103 -146,20 -80,-5 -138,-36 48,-206 207,-105 360,-67zm2342 184c143,-239 305,-245 658,-282 -23,136 10,81 -60,178 -121,169 -349,111 -598,104zm637 -80c368,-199 101,-240 727,-289 -77,250 -197,328 -296,489 -156,-49 -80,-25 -222,-83 -38,-16 -90,-36 -127,-56l-82 -61zm3751 -352l-217 66 217 -66zm-1360 207c-4,-6 -16,-25 -20,-31 -113,-157 205,-218 394,-232l-140 -125 196 -142 265 218c-13,12 -30,27 -39,35l-111 79c-3,2 -82,52 -97,60 -102,52 -185,68 -306,103 62,90 65,22 2,108l-144 -73zm1135 -368c-100,38 -235,96 -348,153 -64,-141 -159,-200 -128,-394 96,-9 636,8 794,28 -63,140 105,55 -318,213zm1065 -296c-24,31 -37,109 -167,161 -293,118 -183,-27 -202,-39l369 -122zm-1228 -97c57,-27 12,-22 104,-28 10,0 67,20 85,27 -90,70 22,37 -116,52 -290,30 60,59 -73,-51zm-8274 114c304,19 414,154 670,261 593,248 483,43 508,347 126,-170 186,-110 387,2 -371,335 -794,257 -1507,223 -514,-25 -1267,99 -1664,42 -10,-552 296,-1641 565,-2021 207,128 243,302 400,463 137,140 321,263 429,453 -71,164 -76,156 -180,280 175,-101 63,-111 291,-226l101 176zm231 -242c-144,-49 -138,-5 -198,-130 151,29 111,28 198,130zm8870 -312c-334,148 -149,13 -215,-23 246,-96 54,-84 215,23zm-533 43c53,-136 -31,-98 152,-156 -39,142 -20,97 -152,156zm-12220 329c358,-136 618,-288 1073,-430 393,-122 766,-235 1198,-274 -180,721 -284,1025 -385,1841 -1152,137 -1826,727 -1886,-1137zm14249 -690c-43,78 -591,611 -751,652l751 -652zm0 0c95,-113 40,-50 140,-137 -37,86 -19,63 -140,137zm-119 -399l152 -81c133,-58 19,-18 161,-51 -330,551 -370,435 -581,442 154,-242 182,-129 268,-310zm0 0l-654 320c100,-258 282,-373 622,-433l32 113zm-981 172c346,-146 98,-32 287,-308l227 29c-93,230 -311,417 -566,376l52 -97zm1268 -401c151,-354 279,-490 690,-519 -90,153 -374,475 -690,519zm-2491 15515l182 -6c178,-202 186,-153 370,-314 573,-502 1289,-1135 1706,-1760 173,-261 547,-435 695,-755 -200,81 -277,203 -390,344l-423 20c35,-155 -92,-66 250,-296 619,-418 1402,-1397 1951,-1974 -1,2 -48,117 -49,122 -123,592 -65,103 -182,521 272,-153 81,-267 636,-545 -86,289 -33,90 -199,270 -95,103 -114,184 -217,303 -181,209 -348,249 -449,532l456 -386 -433 589c-249,374 -352,217 -582,760l-76 146c-172,380 -658,508 -815,871 261,-47 193,-103 408,-238 -103,257 -180,220 -394,358 -162,105 -337,202 -437,365 227,-76 244,-153 486,-243 -129,252 -695,594 -933,789 -167,137 -183,195 -398,124 -70,324 -449,558 -754,694 -1225,546 -2382,580 -3704,650 -883,46 -1656,-324 -2254,-656 -80,-45 -132,-68 -221,-127 -158,-106 -131,-198 -271,-288 -94,-61 -150,-85 -245,-176 -221,-212 -430,-579 -497,-993l162 172c253,384 609,801 1044,982 -87,-113 -233,-153 -340,-243 -554,-468 -678,-1007 -893,-1137 -86,-53 -104,-218 -134,-316 -145,126 -89,84 -150,278 232,-10 202,319 327,583 112,237 254,446 345,646 -277,-155 -598,-383 -835,-567 -317,-245 -538,-327 -781,-608 -227,-264 -139,-101 -414,-277 -364,-233 -820,-847 -1269,-792l-115 -212 -1829 1256c-437,216 -1128,325 -630,-289 715,-879 -779,-275 -1030,-666 248,-334 897,-332 991,-811 -207,-91 -563,-93 -842,-190 -333,-116 -473,-128 -765,-275 -14,-513 478,-634 821,-848 -168,-316 -422,-434 -530,-840 -23,-89 -24,-113 -51,-185l-67 -140c226,-110 172,-131 459,-126 182,256 299,556 521,703 508,-55 783,-668 1066,-969 845,-896 1385,-1464 2742,-997 649,223 593,294 1041,519 304,152 288,203 591,103l9 -200c802,-298 1259,-969 2156,-1203l-108 217c153,-46 155,-36 259,-148l110 -200c282,-515 1905,-136 2493,-125 1232,23 1377,-43 2434,-138 261,-24 193,-34 346,70 233,-197 219,-128 581,-245l1081 -417c94,-41 80,-19 171,-61 265,-120 546,-359 831,-452 241,-78 92,47 268,-185 784,-1035 1192,-934 1064,-1433 89,-57 449,-421 161,-292 -158,71 -677,727 -850,889 -106,100 -470,266 -610,304 206,-335 652,-605 753,-970 -198,96 -211,173 -328,302l-575 583c-136,116 -221,177 -340,287 -489,262 -635,541 -1009,576 227,-435 1133,-940 1153,-1127 -184,36 -246,103 -367,222l-950 969c94,54 12,73 299,13l-533 633c-153,91 -814,179 -1057,179 152,-166 78,-72 293,-213 220,-144 606,-360 702,-559 96,-201 -100,-47 119,-189 -193,-51 -292,320 -661,227 57,-267 29,-30 246,-170 107,-68 79,-125 223,-241l1543 -1180c202,-138 962,-1721 802,-2018 -130,200 55,116 -187,607 -180,366 -233,815 -787,1357 -115,114 -162,96 -263,200 -108,111 -42,131 -188,222 -132,81 -145,20 -295,107 -128,75 -337,307 -447,420 -192,195 -276,265 -465,405l-496 375 168 -41c-30,294 -53,136 72,201 192,-146 141,-182 408,-233 -116,178 -497,414 -694,546 -300,199 -489,282 -960,291 149,-299 92,-48 399,-339 46,-43 94,-92 143,-138l-296 144c18,-243 1080,-924 1320,-1090 224,-156 92,-5 156,-214 -129,30 -256,77 -359,138 -364,215 51,-67 -130,197 -77,110 -763,562 -1009,853l-520 473 -2053 -20c-10,-26 -29,-54 -32,-42 -8,39 -4,-80 -60,-16l-638 -48c279,-327 1051,-642 1474,-794 283,-101 383,-71 649,-3 -51,-131 -157,-133 -304,-194 140,-234 449,-368 712,-472 -105,-81 147,-114 -157,-54 -149,30 -303,204 -417,286 -202,145 -315,258 -590,346 -408,130 -688,348 -1048,563l-125 22c-6,-1 -23,-12 -35,-17 172,-114 219,-95 301,-249 -970,515 -170,604 -1847,409 -759,-88 -1363,-224 -2121,-267l98 -96c347,-270 780,-294 1190,-418 313,-96 95,-12 208,-152l-1649 502c-217,121 -301,220 -549,98 251,-234 702,-253 938,-463 -18,-11 -342,-113 -369,13 -28,136 -699,414 -846,441 -223,41 -984,-43 -1265,-59 253,-342 1286,-441 1507,-743 -165,-108 -293,-2 -530,2 294,213 -472,369 -871,572 -531,269 -905,71 -1531,11 307,-224 806,-207 1131,-411 -278,13 -423,137 -675,201 -206,53 -383,-22 -568,109l-142 122c-1631,-402 -1647,-346 -3323,-334 87,-182 -38,-24 114,-184 220,-232 936,-482 1043,-757 -355,-102 -1424,23 -1844,42l185 -190c81,-71 92,-93 187,-157 169,-112 254,-149 419,-278 347,-272 779,-394 826,-585 -115,-43 -120,-24 -271,-47 -311,-49 -129,-34 -309,-125 -212,-106 -422,-64 -628,-179 877,-170 1932,-146 2726,-424l-119 -535c365,43 677,189 1005,224 313,33 557,-150 858,-133 98,5 82,19 123,38 -173,85 -390,268 -501,320 158,-63 320,-142 490,-211 427,-175 106,-429 2086,-349 567,23 976,-18 1504,-41 247,-11 527,-57 756,-53l673 15c-21,203 -40,122 -147,276 677,-134 -33,-162 945,19l1902 23c575,-54 668,-25 1362,-230 464,-137 937,-135 1399,-264l58 230c181,-140 17,-214 521,-481 618,-326 1349,-724 1780,-1230 159,-187 380,-274 480,-509 98,-227 35,-135 200,-316 120,-132 133,-170 234,-288 168,-196 71,-68 172,-292 110,-246 432,-748 647,-887 22,344 143,558 45,876 78,236 84,-89 143,280 24,152 -23,288 -59,397 9,6 27,1 30,14 61,225 49,18 57,20 58,20 13,-14 76,24 -36,174 -203,492 -270,697 -46,137 -70,223 -102,356l-58 242c-1,14 -3,31 -2,44 4,100 20,82 40,124 57,-257 207,-866 349,-1078 56,115 104,-175 24,153 0,0 -63,125 -70,141l250 -179c-34,331 -84,535 -183,827 74,-45 48,-18 99,-100 6,-10 12,-27 19,-39l96 -163c70,195 62,304 23,539 221,181 139,322 98,579 4,1 12,-5 12,-1 22,112 32,-4 32,-4 8,-1 33,-9 76,5 79,158 -29,431 -94,607 -58,156 -58,146 -101,315 -34,133 -64,194 16,282 45,-167 -38,-45 89,-141 116,842 -799,2018 -969,2366 686,-433 775,-1395 1014,-1843 147,-275 100,57 133,-276 20,-201 26,-134 148,-303 173,266 -87,419 -149,786l141 -161c159,-239 -53,-117 201,-161 -82,484 -167,732 -545,961l100 29c-43,357 -251,970 -367,1279 -71,191 -179,348 -272,539 -93,191 -260,349 -168,504 438,-519 518,-1168 871,-1708 94,-143 256,-402 343,-584 272,369 47,918 -326,1117 220,88 74,29 178,135 -296,13 -210,296 -655,895 -163,220 -563,717 -649,943 393,-169 505,-684 988,-785 -216,697 -1519,1990 -1594,2480 189,-66 1251,-1622 1411,-1903 121,-215 401,-507 336,-771 -170,13 -287,146 -455,217 125,-220 229,-350 362,-534 172,-238 171,-463 502,-395 -168,1133 287,577 -521,1591l-564 821 237 -77c51,85 51,117 155,153 -129,244 -265,433 -408,666 -173,281 -314,411 -490,668 -176,258 -916,1110 -969,1292 404,-81 879,-1180 1271,-1460l203 -197c64,-91 42,-40 75,-98l840 -1893c-12,-132 33,-159 128,-257 125,1484 -653,1320 -731,1927 40,-31 124,-94 160,-128 165,-153 96,-203 262,-162l139 39c-61,304 -175,132 -283,461l-284 -25c-24,156 -264,390 -277,416 -162,339 -868,1137 -1120,1410 -151,163 -137,103 -231,286 500,-188 1176,-1419 1429,-1578l278 -148c10,-7 28,-19 42,-27 -85,367 -437,762 -678,1033 -485,545 -1042,1252 -1621,1736 -846,706 -667,53 -1130,200 244,216 713,265 987,390l-396 378c-137,111 -311,284 -419,378 191,-60 161,-99 369,-171 -125,212 -283,282 -423,475 -470,-138 -1029,563 -1412,849 -163,123 -371,88 -390,172 -14,66 79,-23 10,87 -178,279 -917,380 -1238,349l1107 -382 -228 -106c157,-89 527,-250 561,-489 -308,-20 -251,213 -494,392 -951,702 -1178,-433 -1727,-623 -19,209 189,358 466,542 234,155 385,281 708,329 -156,197 -477,361 -667,177 -132,285 -702,249 -991,293l-535 -645c-116,-190 -1,-139 -209,-185 92,286 461,641 682,812l-162 137 504 26c-734,370 -1220,-75 -1802,-322 -466,-197 -751,-402 -1056,-742 -123,-137 -174,-275 -299,-333 194,625 1141,1085 1699,1365 794,400 1759,152 2690,71 -159,-61 -395,-113 -573,-93 -216,23 -438,96 -597,-4 428,-216 912,-59 1345,-114 385,-49 358,37 571,5 112,-16 468,-188 523,-239zm-24030 -9098c-599,-785 -252,-3659 -44,-4617 234,-1083 372,-1082 819,-1850 217,-374 907,-1111 1398,-1252 -76,232 -97,178 -198,369 -73,139 -53,199 -117,335l-339 651c-208,447 -555,869 -652,1363 199,-122 63,55 188,-263 71,-180 42,-138 167,-236 -35,309 -203,499 -274,1397 -55,698 -479,1818 -708,2658 -144,532 -148,875 -240,1445zm2006 -7027c22,-239 220,-463 349,-642 233,-326 183,-331 632,-438 -171,237 -815,683 -981,1080zm656 6339l72 2542c-151,-63 -434,-322 -479,-384 -241,-328 -585,-1565 -710,-2021 -248,-900 -495,-2135 -487,-3090 10,-1035 288,-2131 729,-2858 337,-556 1199,-1711 1933,-1668 -242,390 -139,324 -203,858 -29,236 -145,576 -208,822 -277,1082 -675,4803 -647,5799zm-4138 -1978c-14,-1150 -177,-1487 233,-2580 316,-844 613,-1226 1016,-1936 356,-628 854,-1110 1628,-1334 446,-129 2060,-614 2252,184 -545,223 226,-402 -1313,359 -1058,524 -1646,1432 -2260,2373 -81,124 -128,285 -211,420 -117,191 -112,241 -202,436 -95,208 -329,496 -481,848 -110,256 -499,1042 -662,1230zm13644 -2630c-333,-438 -255,-1360 -323,-1801 -73,-469 -252,-1372 -208,-1849l473 83 58 215c306,-40 220,-140 561,-14 252,94 287,135 592,145l161 -185c118,144 53,1 158,342 134,438 286,933 508,1293 119,193 45,176 115,340 28,68 203,240 353,569 -277,147 50,136 -601,256 -588,109 -1307,402 -1847,606zm113 -3679l192 82 -192 -82zm16905 -104l-39 87 -71 -92 110 5zm-16961 69c-89,34 -18,69 -198,15 -247,-75 -67,-29 -138,-113l336 98zm-2215 2067c-32,-431 143,-267 12,-805 -69,-288 -295,-1328 -170,-1587 469,-186 534,94 777,156 194,49 166,-56 409,7 138,35 187,99 383,146 106,798 332,1835 337,2605 6,928 122,467 166,1286 13,228 185,782 207,1212l-627 -155c68,328 237,378 151,669 -322,210 -1345,297 -1792,247 -12,-314 -48,-622 -69,-942 -62,-935 59,-441 45,-869 -230,-157 -485,-226 -754,-330 -827,-318 -899,-1357 -1378,-1751 -1052,-865 -1841,-831 -3487,-739l-157 -315c326,-60 696,-33 1044,-53 336,-19 580,-103 893,-139 990,-116 969,188 1516,567 442,307 931,761 1257,887 641,248 692,851 1349,761 -23,-261 -90,-560 -112,-858zm19176 -2136c144,-71 330,-19 455,110 -256,143 -186,-48 -455,-110zm-110 -5l-90 -109 90 109zm1985 -325c164,26 192,9 231,124l-231 -124zm-21249 -89c-22,-110 50,-33 73,3 65,101 -69,16 -73,-3zm23486 -1109c149,-294 134,-5 -33,-357l419 46c-78,449 -325,319 -386,311zm-174 -2226c288,-3 591,18 799,173l-799 -173zm-22193 572c-616,2 -2088,-201 -2514,-503l49 -319c664,35 1073,372 1899,288 -181,-120 -1420,-174 -1818,-464l206 -449c603,60 1458,719 2152,677l26 770zm23398 -1093c-49,125 53,110 -211,16l211 -16zm-11 -131c-211,98 -972,-82 -1309,-67 214,-377 1102,-136 1309,67zm-3888 10655c17,959 -485,1489 -692,2402 -44,-337 40,-783 -25,-1012 -89,-310 -144,-693 -181,-991l199 -226c-137,-66 -50,-5 -109,-18l-111 -40c9,-510 44,-251 202,-588 -175,38 -125,43 -304,71l84 -409 -173 -58c-29,-183 -51,-450 16,-579 -9,-9 -23,-18 -28,-23l-60 -49c-295,-307 102,-460 145,-712 -157,41 -192,152 -298,243 -78,-396 47,-455 108,-738l-212 123c-7,-12 -24,21 -37,30 -38,-245 -45,-167 -34,-406 10,-199 -38,-152 -58,-338 -28,-267 168,-352 223,-616 -245,90 -139,111 -307,287 -77,-356 -38,-487 -70,-803 -52,-501 -92,-225 66,-722l-215 -87c-8,-285 -160,-766 73,-879 -70,-52 139,-138 -200,-59 131,-1411 228,-2120 -204,-3444 -94,-287 -512,-1237 -506,-1416 21,-601 1885,-1523 2316,-1486 244,21 1057,201 1274,513 224,323 579,803 642,1266 78,579 -241,1035 -360,1535 -299,68 -199,-62 -297,195l281 -5c171,199 701,682 774,836 121,256 51,312 413,399 194,47 457,74 624,160 -281,184 -784,-104 -1017,-168 73,322 638,289 945,282 -275,495 -530,408 -981,209 -431,-190 -235,-212 -340,-317 -149,-149 -846,-365 -1023,-296l258 99c921,219 623,211 689,355 110,241 660,310 897,419 -298,392 -1151,-96 -1374,-384 -375,267 813,481 983,665 -541,195 -1005,-246 -1378,-493 1,239 178,287 388,386 188,89 397,151 540,296 -397,113 -547,26 -877,-128 -310,-144 -228,-56 -414,-71 -165,-13 -178,-99 -361,-180 96,231 131,204 359,316 191,95 237,106 374,226 -339,207 -586,40 -883,-179 -234,-172 -216,-82 -440,-195 -132,-67 -238,-149 -369,-198 50,246 -16,119 228,223l860 469c-305,234 -737,-285 -1101,-405 81,313 393,301 691,517 -240,137 -320,-55 -537,-206 -244,-170 -225,-81 -571,-123 -67,-167 -50,-247 -211,-290 -45,477 134,433 323,752 -32,-1 -248,-23 -258,-22 -320,11 -90,-5 -196,62 100,134 -17,71 185,93 239,25 481,19 697,99 336,-159 265,-170 637,-22 29,-87 33,36 0,-66 -1,-5 -43,-70 -58,-95 352,-40 263,54 566,46 -148,-129 -72,-6 -152,-148 357,-26 459,205 781,296 -26,-97 -90,-97 -191,-161 -72,-46 -121,-89 -193,-158 239,-203 678,-170 965,-247 294,-80 617,-247 892,-350 -434,1767 -994,3421 -1569,5113 -147,429 -280,1333 -574,1620l-186 -2273c53,47 48,31 100,97 193,243 221,512 558,641 -14,-46 -716,-1275 -926,-1340 -123,189 59,363 128,594 93,313 171,1947 177,2284zm-22125 -10449c-29,-176 -24,-191 64,-355 91,-168 68,-145 227,-222 -53,210 -156,464 -291,577zm2654 83c-96,68 85,51 -181,70 -236,17 -1744,-612 -1901,-746 318,75 702,219 1032,327 165,54 362,111 536,163 696,207 408,-27 514,186zm-2115 -1062l-192 219 192 -219zm25289 -12c242,-27 81,-80 144,102l-144 -102zm-361 -142c111,-65 243,-125 338,-175 49,107 61,100 82,203l-420 -28zm-22771 1025c-343,-9 -1231,-303 -1618,-440l-430 -244 140 -298c664,150 1191,608 2001,671 -151,-122 -238,-103 -486,-196 -333,-124 -1100,-411 -1345,-576 100,-232 221,-343 416,-449 224,104 622,280 839,417 248,156 567,303 938,345 -128,296 -192,179 -455,770zm-49 1225c267,527 -12,597 477,1153 133,151 250,241 386,425 241,327 155,301 368,408 -223,-870 -1086,-668 -1135,-2556 -17,-646 216,-1015 515,-1359 615,-704 1082,-502 1161,-508l-179 -171c358,-52 613,-336 954,-346 286,-9 810,130 990,299l-279 931c-79,155 -131,126 -203,169 85,505 -69,435 -229,521 35,224 77,521 -123,619 -9,5 -29,14 -39,19l-107 57c160,342 138,780 -64,1116 -89,148 -72,41 -152,216l229 2449c-393,-179 -894,-352 -1378,-463 100,-172 90,-118 231,-249 -195,-93 -491,393 -1408,-58 254,-131 890,-188 1260,-235 444,-57 287,-71 343,-125l-1081 147c-578,109 -68,-144 -578,-8 -132,35 -207,48 -342,73 -382,72 -380,53 -684,-52 110,-108 -148,-59 397,-179l845 -206c202,-56 218,-34 275,-211 -317,24 -19,88 -471,201 -639,160 -1150,349 -1466,65 197,-149 526,-176 796,-208 178,-21 302,-60 460,-75l328 -26c10,-2 32,-2 38,-18 6,-15 23,-15 34,-22l-1954 189c-259,29 -91,-18 -120,-63 419,-202 1569,-187 2116,-387 -400,-55 -826,73 -1159,125 -197,31 -427,51 -630,76 -487,58 -438,3 -515,-103 24,-10 38,-85 183,62l33 -87c18,-53 -1,-28 25,-72 599,-83 1272,-13 1786,-179 -404,8 -813,-2 -1211,25 -756,50 -828,141 -950,-274 421,20 1975,40 2266,-112 -210,-153 -54,-43 -152,-46 -351,-12 -1402,109 -1975,56 -351,-33 -292,-80 -307,-420 606,19 1862,203 2343,72 -64,-149 -36,-121 -179,-196l-50 115c-1,-7 -5,20 -8,29 -420,3 -905,-39 -1322,-78 -967,-90 -829,36 -907,-472 464,4 802,56 1245,74 524,21 937,171 1168,-3 -169,-69 -1717,-125 -2100,-156 -353,-28 -349,9 -381,-351 261,-8 946,183 1219,243 477,105 889,99 1367,140zm22164 876l96 201c-1,0 -183,-26 -203,-30l-548 -259c-206,-147 -45,-84 -285,-171l251 262c317,191 618,257 780,519 -47,23 -81,84 -290,37 -124,-28 -145,-51 -228,-124 -89,-78 -84,-91 -173,-172 -73,-66 -126,-112 -183,-169 -234,-235 -454,-507 -670,-730 141,-499 443,-918 468,-1506 19,-451 -353,-1097 -576,-1319 157,-262 196,-289 517,-427 750,-325 1534,-597 1805,179 -287,13 -1753,321 -1824,608 351,-51 1288,-620 1958,-398 -104,275 -52,143 -309,260 -460,210 218,128 -584,232 -171,23 -646,299 -685,339 328,-2 752,-222 1108,-259 187,-19 140,-9 280,36 431,139 483,-23 522,547l-701 -246c143,-13 228,-1 353,-6 99,-4 63,1 148,-20l69 -47c-171,-138 -1646,45 -1769,116 120,99 293,36 590,26 -173,368 -311,215 -549,245 -325,41 -56,-16 -160,77 172,88 515,13 740,18 131,3 278,3 407,10l351 93c-423,12 -914,-19 -1206,172 164,82 556,-46 793,-56 404,-19 530,14 909,72 14,199 -58,415 -154,571 -192,-245 -104,-94 -51,-179 133,-214 61,85 101,-163 -400,128 -605,31 -992,-1 -473,-38 77,93 -852,49l-49 266c734,-162 944,-19 1611,219 42,-68 -18,-81 1,-143l242 53 -16 290c-297,-44 -669,-269 -893,-318 -47,-10 -94,-19 -142,-17 -118,5 -70,16 -126,48 144,198 658,90 732,285l332 158c53,160 26,127 -1,337 -694,-142 -1450,-911 -1753,-780 93,168 234,91 736,426 734,491 904,195 729,531l181 87 -84 347c-302,-18 -412,-145 -754,-176zm-21253 -3312c-149,-119 -1446,-389 -1606,-799 125,-127 372,-22 511,67 328,209 909,247 1413,629l-592 421c-512,46 -1545,-518 -1803,-779l298 -181c355,186 1312,734 1779,642zm41 -1146c452,-228 613,365 1231,332 -193,-94 -522,-186 -626,-385 212,51 372,133 581,228 168,76 345,155 459,288l-1150 492c-161,11 -1095,-471 -1330,-610 -260,-153 -241,-43 -399,-113 102,-80 -134,-14 115,-66 186,-39 470,128 706,221 144,57 302,106 424,153 519,202 304,78 358,39 -351,-182 -898,-300 -1136,-504 968,-169 716,289 1076,103 -173,-67 -173,-40 -309,-178zm19110 267c175,-460 835,-682 1370,-559 -160,231 -542,302 -777,454 -172,111 -87,31 -180,195 257,77 550,-242 854,-388 411,-197 537,-98 890,85 -141,133 -710,269 -915,354 -382,158 -525,263 -827,428 -156,-339 -184,-251 -564,-424 -101,-46 -34,-7 -117,-66l-62 -73c89,-48 110,-82 177,-80 150,4 101,112 122,58 3,-9 18,13 29,16zm-1352 61c92,-215 565,-478 747,-610 361,-261 572,-150 1105,-136l-475 361c-831,702 -335,147 -1377,385zm-5081 -1092c12,72 -89,134 -80,11 13,-179 78,-23 80,-11zm5063 596c371,-125 175,-258 605,-310 -118,220 -379,298 -781,816 -200,257 -208,106 -573,296 -321,167 -481,279 -730,487 -517,431 -142,189 -660,501 38,452 237,769 391,1175 148,389 235,735 358,1150 164,553 261,2600 -19,2745 -296,153 -1009,161 -728,573 101,-173 -32,-337 708,-413 -71,593 -412,1161 -745,1624 -158,220 -166,233 -482,259l2 -152c-178,116 -104,207 -406,215 -99,3 -212,-23 -296,-22 -113,3 -70,0 -165,25 -14,4 -37,42 -47,27 -10,-15 -30,21 -45,32 17,6 38,14 51,16l605 1c-126,344 -172,235 -330,496 -240,9 -617,-6 -783,-101l-321 456c-265,110 -236,38 -535,48 82,76 -58,27 161,114 443,174 735,73 1167,50 -112,201 -7,51 -123,179l-718 493c-193,98 -271,151 -534,153 -351,3 -300,-23 -502,-180 417,-464 346,-157 502,-161 214,-76 114,-88 260,-146 201,-80 147,12 327,-86 -187,-223 -58,-27 -474,-63 -375,-33 -209,-56 -142,-252 -365,-49 -467,174 -609,438 206,-127 11,-77 271,-198l-150 306c-214,-54 -166,-102 -419,-109l150 203 -140 215c-279,-110 -70,-95 -268,-187l63 360c-310,87 -213,185 -572,41l119 -280c-175,39 -122,23 -216,221l131 232c-284,171 -180,-61 -429,231 93,8 177,9 291,-39 -64,172 -154,216 -301,269 -145,-205 -208,-192 -75,-477l-275 43c-53,82 -34,121 -96,246 -72,145 -87,120 -163,246 -297,-12 -370,-13 -610,96 12,-212 103,-124 377,-496 230,-8 214,16 346,-60 -450,6 -1154,133 -1515,166l-858 182c-173,75 4,11 -108,69 -188,97 -102,70 -355,40 31,-170 79,-192 167,-282 -376,-105 -211,42 -622,96l249 2c-137,212 -103,120 -380,78 -151,-23 -276,-30 -424,-54 68,-84 9,-44 134,-133 64,-45 42,-21 113,-60 141,-76 128,-60 236,-163 -54,-29 92,-56 -149,-34 -308,29 -420,610 -936,213 240,-120 418,-148 538,-379 -88,24 -946,623 -782,205 89,-225 229,-181 60,-396 -54,112 -121,327 -177,437 -669,-70 -513,-299 -517,-313 -234,137 -573,-83 -697,-244 1065,147 311,106 1146,86 -182,-54 -100,-38 -166,-97l364 -252c-354,7 -351,136 -589,290 -565,-24 -261,-116 -585,-190l-257 -105c-150,-90 -100,-50 -258,-89l-58 145c-200,-205 -163,-27 -284,-244 270,104 109,102 366,-23l-430 -169 225 -115c-172,-85 -215,-35 -420,2 -140,-281 -202,-196 -344,-489 245,52 559,169 810,81 -218,-135 -190,77 -752,-151 -260,-106 -342,-229 -436,-495l931 495c-254,-277 -326,-132 -941,-600 -286,-217 -151,-218 -242,-505 -56,-177 -164,-210 -226,-493 211,101 333,186 428,361 291,538 -128,-332 278,223 101,138 81,166 315,201 -169,-250 -244,-141 -435,-486l-220 -342c-115,-185 -137,-389 -305,-529 33,193 81,217 128,423l-262 -225c-170,-191 -257,-731 -278,-1008 138,115 184,302 236,478 85,-156 -217,-929 -271,-1289 159,81 54,-46 143,156l-62 -748 267 324c-153,-609 -247,-581 -162,-1339l130 90c6,-13 25,26 38,39 -35,-296 -132,-466 -39,-742 71,-210 41,-90 77,-139l177 505c88,165 60,81 118,132 -162,-659 -336,-657 -97,-1352l185 330c5,-396 -264,-672 190,-1294l165 331c-6,-213 -73,-320 -81,-466 -18,-360 275,-514 -316,-674 -429,-116 -387,-26 -385,-304 -287,25 -544,-138 -751,-304 -136,-108 -98,-86 -129,-202 580,-43 415,85 806,208l-230 -208c278,3 376,150 521,276 264,229 352,331 490,116 -15,-9 -34,-18 -46,-23l-96 -35c-15,-6 -33,-7 -48,-12 -103,-38 -29,16 -152,-77 -116,-87 -161,-142 -221,-264 210,8 349,-17 512,79l105 73c219,133 606,563 880,433 -181,-173 -406,-188 -665,-464 31,-19 12,-20 113,-48 843,-229 740,305 1241,-271 123,-141 235,-199 449,-268l-35 369c56,-69 33,-12 82,-122l90 -367 196 -91 58 233c8,-13 17,-31 22,-41l137 -276c97,-93 257,-110 390,-139l7 362 181 -57c-17,-96 -18,-55 -38,-101 -188,-433 85,313 -53,-112 240,-296 197,-336 689,-359 -68,253 -161,469 -156,764l161 -45 -55 -142c-29,-223 151,-452 208,-631l728 -116c-91,261 -285,422 -285,681 166,-6 184,-51 311,-149l-166 -58c146,-231 189,-517 588,-519 -76,228 -195,349 -182,630 179,-31 144,-41 296,-106l-151 -96c-5,-19 -24,-17 -44,-30l237 -413 750 37c7,218 -72,195 -127,468 226,-36 191,-6 347,-145 -109,-61 10,11 -104,-24 -107,-33 -32,2 -96,-42l159 -231 353 21c-29,217 -187,337 -55,532l32 -94c83,-286 133,-415 479,-378 -27,192 -406,597 -164,712 69,-139 -84,-109 132,-410 121,-169 135,-295 396,-219l51 381c332,-175 -23,16 115,-333l450 40c-39,182 -62,257 14,371l117 -330 360 13c-75,295 -341,400 -188,622 310,-113 -12,-2 127,-270 41,-79 159,-188 227,-276l526 126c-101,269 -448,526 -126,648 -90,-504 542,-867 818,-222 -66,130 -91,120 -124,183 -121,233 -23,140 -1,188 205,-120 29,28 144,-175 61,-111 11,-44 84,-141 104,-137 123,-197 347,-173 -97,202 -176,226 -231,481 179,-94 244,-273 417,-366l183 219c440,-1 213,5 589,174l-290 615c206,-91 62,14 150,-135 77,-128 143,-271 288,-363l260 160c-47,277 -292,467 -146,668l48 -124c5,-14 8,-32 13,-46l289 -442 296 82 -111 450c315,-240 214,-563 866,-692 -113,172 -240,399 -406,537l65 82c2,7 7,23 8,30l-88 228c-77,175 -91,216 -91,394 150,-274 221,-665 499,-790 -18,-42 -273,-255 350,-591 -108,182 -231,242 -311,480 14,-9 32,-21 41,-29 240,-204 325,-517 672,-573l-948 1198c174,-1 306,-304 449,-469 298,-346 560,-785 1033,-861 158,-25 250,-45 377,-45l328 22c-604,298 -221,116 -405,150 -187,34 -922,956 -929,1092 107,-127 218,-312 374,-356 101,-29 29,96 196,-121 216,-281 795,-864 1190,-817 -139,151 -148,101 -279,287zm-25812 4161c-196,-378 -154,-1400 -86,-1882 204,-1459 663,-3257 1760,-4301 -23,268 -156,463 -258,710 -116,284 -158,451 -245,732l-325 1186c-34,102 -82,210 -125,342 -423,1281 -393,2810 -721,3213zm2200 -6657c345,147 690,750 890,1142 604,1185 521,3285 -72,4596 -91,200 -40,167 -187,285 10,-511 143,-1207 116,-1735 -27,-516 -70,-1111 -178,-1612 -272,-1266 -348,-1055 -678,-2047 -121,-363 -164,-440 109,-629zm5874 553c-334,-118 -391,-753 -444,-1133 -139,-1003 -274,-1967 28,-2874 86,-256 404,-854 619,-962 109,973 -288,2175 -269,3780 5,389 102,870 66,1189zm1272 -2038c-137,-857 -157,-704 -335,-1449 -186,-780 -161,-1186 -558,-1814 147,-132 218,-173 462,-182 772,826 818,2850 582,3954l-106 -252c-17,-79 -32,-176 -45,-257zm670 -1751c-51,-437 -666,-1286 -836,-1711 1687,280 2335,2311 2283,3728 -270,-59 -349,-193 -502,-365 -734,-828 -442,-708 -945,-1652zm0 0c13,762 784,2019 1503,2224 350,-521 -115,-3613 -2280,-4126 -1061,-251 -2470,2005 -2852,2894 -76,178 -128,430 -253,577 -62,-899 -231,-1833 -347,-2734 -31,-246 -105,-443 -138,-661l-145 -1369c-45,-600 156,-484 -62,-546 -221,359 646,6078 930,7438 118,567 182,1263 346,1799l55 332c9,112 62,-44 -20,65 -294,211 -340,-206 -501,-364 -118,221 107,354 216,487 -204,151 -167,85 -390,18 -139,204 -181,422 -521,345 -156,-289 -90,-900 -116,-1232 -109,-1407 -288,-2260 -392,-3433 -68,-772 -114,-1543 -215,-2324 -97,-741 -297,-1580 -333,-2247l209 376c15,-245 -106,-684 -253,-861 -267,372 74,1511 157,2022 114,703 203,1479 263,2179 85,979 466,3832 406,4483l-120 -208c-176,-464 -551,-790 -869,-1155 -617,-709 -1387,-913 -1730,-1165 -356,-263 -691,-605 -1227,-501 -402,78 -1286,600 -1500,818 -462,468 -474,541 -811,924 -1111,1263 -1745,4777 -1209,5935 223,-73 296,-441 378,-685 255,-763 584,-1492 943,-2182 246,-471 1270,-2117 1716,-2474 -56,131 -70,106 -147,274l-408 871c-122,376 -306,968 -359,1378 -122,941 -348,2157 -8,3070 184,-58 63,61 176,-125 134,-221 294,-1264 330,-1505 136,-932 361,-1723 600,-2599 387,-1416 331,-1041 806,-2317 60,61 37,-1 109,143l178 511c637,1558 676,2272 663,3982 -3,366 -204,1367 -131,1544 198,-40 179,-131 265,-349l455 -1283c411,-1501 249,-3545 -757,-4792 -108,-135 -174,-164 -293,-292l-251 -320c-74,174 -42,173 39,319 -261,39 -290,104 -424,270l-904 1063c-366,462 -799,1051 -1132,1532 -433,625 -1090,1941 -1334,2660 -115,340 -295,615 -412,919 -496,-594 214,-3648 458,-4230 458,-1093 1229,-2101 2290,-2691 464,-259 757,-373 1296,-132 618,277 448,413 762,833l116 -259c319,149 514,291 788,483l996 913c199,259 356,468 480,800l192 320c22,-50 157,834 107,1013 -57,79 -82,132 -160,203 -36,32 -91,60 -101,69 -92,79 -23,-11 -85,90l-239 401c-170,224 -417,507 -464,871 -172,-34 -253,-88 -383,-138 85,273 85,141 307,299 -63,145 -203,346 -107,568 65,-69 11,75 84,-138 17,-48 12,-79 29,-139 41,-145 37,-131 119,-234 56,92 94,-170 31,191 -17,98 -51,142 -61,231 -17,159 27,249 17,431 -105,-24 -122,-50 -198,-69 -330,-85 -100,-35 -180,28 147,157 194,92 425,189 14,159 -6,368 -3,400 4,60 141,219 77,315 -5,8 -19,26 -25,36 -7,9 -19,27 -25,37 -23,36 -30,30 -60,123 266,238 157,53 323,405l-60 32c-7,4 -26,14 -33,18l-109 66c365,183 353,160 502,579l-194 116c301,135 173,6 479,252 111,89 316,173 483,224 24,475 239,1058 231,1605 -11,681 95,1070 122,1688 -467,7 -505,-126 -680,-429 -126,-218 -375,-245 -633,-410l-590 -453c-732,-547 -1156,-1135 -2240,-877 -598,142 -1273,133 -1893,191 -225,-352 -471,-582 -972,-613 -783,-49 -2515,448 -2951,1083 -570,830 -1121,1651 -1440,2613 -296,894 -222,1305 -218,2191 1,246 -26,520 150,659 220,-163 504,-1011 631,-1293 266,-586 498,-817 648,-1283 29,71 43,-27 39,187l-103 456c-114,552 -154,1552 -154,2142 1,518 49,2289 550,2538 50,-368 20,-690 86,-1072 127,-747 376,-1474 570,-2208l184 -386c39,1223 544,3227 1006,4388 130,324 530,863 826,975 110,-157 84,-383 80,-586l-52 -1868c-106,-1857 316,-4880 760,-6619 129,239 174,1133 434,1818 248,652 391,903 619,1641l517 1745c171,685 138,1716 373,1829 -72,-1395 -513,-2779 -931,-4110 -208,-666 -545,-1203 -673,-1865 -125,-640 -339,-1631 -100,-2187 171,58 201,155 230,274l330 400c266,369 441,697 575,1162 97,336 157,620 267,952 87,264 251,604 309,853 233,1001 398,2211 225,3261 -54,330 -98,730 -53,1072 55,-92 249,-1880 244,-2122 -12,-645 -116,-1565 -267,-2136l-877 -2657c-116,-222 -390,-473 -444,-703 664,-45 808,5 1102,453 476,728 704,1549 688,2439 -6,322 -192,1138 2,1354 27,-68 116,-1083 124,-1238 21,-419 -49,-822 -122,-1215 -209,-1120 -602,-1261 -864,-1795 349,-10 938,24 1255,115 410,118 533,264 860,481 666,442 577,1269 1187,1549 -37,178 -12,46 -48,202 372,134 845,247 1114,432l-55 576c-596,256 -1728,477 -1906,983 267,-50 91,-54 271,-94l672 -73c555,-48 568,-174 1002,17 -79,-350 -166,-262 -483,-211 -232,38 -481,29 -717,39 141,-167 392,-253 602,-318 183,-58 461,-181 596,-189l113 1063c-281,18 -645,86 -886,172 -354,128 -600,90 -548,444 350,24 1269,-101 1547,157 -371,191 -808,593 -1163,853 -173,126 -236,107 -347,295 274,80 1330,-98 1835,-61 -279,317 -1057,630 -1180,1015 359,50 1435,-95 2006,-45 333,30 519,137 863,181l834 151c69,461 144,1424 442,1688 74,-124 32,-160 -38,-357 -153,-427 -211,-868 -229,-1331l810 115c-185,423 -447,1242 -320,1684 -487,178 -796,654 -1088,949 -337,342 -510,643 -721,784 -164,109 -119,109 -337,139 -107,-157 -384,-641 -396,-876 -18,-355 -113,-446 -117,-981 -2,-298 -63,-204 -132,-511 -83,-374 -2,-1316 -211,-1576 -153,31 -102,2 -189,84 40,237 95,-50 156,344l134 1534c-182,136 -491,396 -572,649 302,556 691,-57 811,618l-666 217c13,228 -25,223 -32,510l117 -140c82,-123 -46,94 35,-75 79,440 324,593 420,936 -297,224 -688,431 -709,888 292,319 1035,530 1558,528 -64,169 -48,134 -226,250 -177,114 -693,271 -698,496 198,508 718,236 1298,251 -67,319 -460,447 -429,893 427,397 1096,-143 1423,-332l359 684c96,239 169,442 269,718 167,461 461,944 594,1386 -315,-60 -544,-199 -795,-247 -769,-145 -2233,2 -3031,21 -957,23 -2961,7 -3822,270 -89,-138 -112,-116 -188,-282l548 13c-128,63 -9,23 -198,53l326 -42c178,-35 161,9 370,-75l-177 -117c1010,-114 2069,-288 3083,-284 560,3 1118,1 1678,4 312,2 566,-34 869,-48 550,-25 504,247 654,-29 -297,-184 -890,-62 -1263,-36 -1332,92 -2289,15 -3792,153 -670,61 -1765,273 -2384,188 -287,-40 -937,33 -1209,96 -707,163 -1361,171 -1959,645 -580,458 -870,488 -1345,1316 -169,296 -266,534 -453,823 -839,1304 -603,1888 -657,3240 -26,659 44,591 310,974 8,-8 1769,-3521 1778,-3745 6,-147 1,-40 -42,-98 -283,705 -600,1422 -921,2061 -111,109 60,-171 -114,4 -55,56 -70,134 -97,199 -162,385 -374,864 -592,1187 -119,-83 -22,75 -125,-122 -76,-145 -44,-356 -45,-514 -12,-1796 -17,-1505 629,-3121 270,-675 1458,-2101 2161,-2353 504,-179 905,-41 1374,-115 474,-75 835,-351 1203,-326 631,360 1208,1593 1400,2365 225,903 72,2496 -330,3176 -51,-1084 -55,-1195 -326,-2168 -89,-321 -398,-895 -550,-1299 -105,-279 -57,-270 -251,-318 -31,56 -209,1278 -186,1421l227 -1088c49,50 41,25 89,107l144 375c611,1430 679,1570 768,3174 10,195 -67,326 -63,582 240,-108 213,-429 295,-700 73,-238 145,-451 210,-718 466,-1916 209,-2770 -718,-4420 396,-45 662,-166 1144,-209 1243,-108 2540,-72 3793,-133 830,-41 1714,-31 2467,254 271,102 396,361 600,560 214,208 465,375 674,601 102,109 225,263 329,365 577,570 683,828 1159,1447 105,136 158,233 260,378 159,230 338,550 461,813 144,307 247,640 386,940 319,694 469,1222 617,1991 53,279 36,886 235,1002 68,-286 -198,-1508 -274,-1832 -156,-673 -378,-968 -575,-1507 -379,-1036 -1674,-2992 -2531,-3777 -385,-352 -790,-543 -1046,-1043 -494,-969 -790,-1947 -1210,-2937 155,-178 651,-533 848,-639 7,12 13,30 17,38l115 211 100 -274c706,86 789,317 1179,643 185,155 310,235 494,373 206,154 215,272 435,434 688,507 1384,954 2076,1456 314,227 879,400 1314,480 799,146 602,218 975,762 570,829 659,1417 1052,2411 238,-49 334,-457 602,-950 213,-391 344,-580 602,-903 1090,-1361 966,-923 1554,-1437 -411,-191 -1335,1042 -1535,1281 -293,352 -967,1563 -1171,1723 -207,-417 -335,-983 -551,-1463 -216,-479 -531,-800 -734,-1263 524,1 1005,-32 1522,-42 631,-12 797,-69 1329,-183 759,-163 1505,-516 2116,-950 2044,-1452 2097,-2507 2916,-2872l224 -110c-197,-75 -379,107 -577,177 135,-282 117,-185 313,-399 325,-356 392,-821 850,-1052 -8,-11 -20,-26 -25,-32l-108 -142c472,-968 309,-463 497,-1856l343 -287c-191,-81 -79,-27 -285,47 12,-199 8,-249 139,-358 201,-167 187,-33 263,-282 -170,21 -200,63 -321,139 54,-238 146,-285 251,-472 -11,-11 -25,-26 -31,-31l-132 -85c18,-223 9,-581 51,-758 78,-336 163,-61 301,-471l-170 -219c141,-961 907,-2449 1293,-3618 136,-413 202,-857 330,-1284 254,-850 589,-1617 828,-2480 115,-411 245,-872 349,-1264 67,-256 144,-846 295,-1037 67,-84 16,-8 81,-91 253,-10 453,58 628,-70l-171 -8c-108,6 -126,8 -239,0 56,-126 213,-325 327,-426 174,-155 271,-76 413,-261 -76,-33 -129,3 -215,-58 277,-457 227,-238 682,-463 -85,-71 -184,-20 -344,-10l53 -338 338 -231c-114,-56 -92,-2 -273,50 30,-181 74,-344 136,-506 143,-380 11,-124 43,-463 15,-161 108,-336 122,-529 22,-308 -57,-210 101,-463 -8,-11 -22,-24 -28,-29 -129,-137 -205,-442 -90,-603l169 -139c-380,-48 -225,-21 -371,-286 -97,-174 -178,-143 -221,-352 -67,-329 137,-683 198,-969 253,-1194 627,-3865 1041,-4926 57,-147 107,-265 160,-426 96,-288 95,-308 24,-425 -194,92 -77,-57 -145,257 -21,98 -32,160 -74,267 -76,198 -121,315 -181,519 -12,-10 -28,-24 -35,-32l-153 -200c-153,-195 -300,-404 -521,-579 -262,-208 -527,-474 -838,-668 -1561,-973 -2876,-1229 -4647,-670 -339,107 -762,283 -1059,446 -820,451 -655,440 -579,627 -331,275 -915,1242 -1060,1780 -114,420 -122,791 -214,1181 -96,411 -231,760 -22,1209 313,-6 618,-525 810,-766 545,-683 911,-1190 1327,-1914 153,-266 333,-895 598,-987 222,2169 -797,2972 -893,3867l161 160c333,-3 369,-124 546,-314 410,-441 786,-755 1026,-1402 151,-409 283,-834 387,-1231 58,-221 187,-1162 309,-1323 318,468 564,1762 523,2426 -13,219 -32,296 -19,525 16,283 -41,269 122,330 78,-80 -7,93 46,-58l17 -1029c-21,-602 -201,-1741 -541,-2243 -15,-23 -116,-173 -117,-174 -89,-87 -23,-44 -157,-71 -63,148 -174,1073 -251,1368 -212,803 -388,1671 -952,2291l-382 429c-121,128 -302,261 -555,259 42,-246 252,-632 366,-910 109,-269 275,-653 347,-929 231,-894 193,-1360 117,-2202 -3,-26 -14,-32 -21,-47 -187,81 -102,30 -237,199 -403,502 -627,1323 -1020,1815 -354,444 -1081,1561 -1478,1731 -94,-468 121,-1334 214,-1832 130,-705 312,-973 628,-1461 301,-467 577,-863 962,-1121l1073 -496c756,-244 1468,-364 2288,-260 994,125 3661,1522 3707,2561 -274,-144 -539,-550 -823,-747 -194,-134 -298,-228 -464,-346 -171,-122 -242,-229 -417,-338 -290,-182 -1839,-1049 -2151,-544 208,151 247,-64 373,299 197,572 122,1178 72,1784 -73,878 -491,1544 -487,2179 276,-146 73,-114 474,-556l-136 -96c-4,-17 -23,-13 -35,-20 188,-763 296,-942 364,-1797 116,-1442 -18,-766 -182,-1793 594,35 1546,600 1890,883l774 616c212,201 540,453 661,783 133,-46 88,-41 124,-24 -31,249 -202,970 -278,1208 -243,764 -305,1651 -466,2429 -83,399 -179,807 -259,1185 -183,-85 -258,-201 -369,-305l137 -134c-424,-63 -417,12 -774,-213 10,-11 24,-25 31,-31l152 -139c-420,-31 -199,-40 -586,46l-174 -161 -1031 -15c-90,-8 -160,-21 -307,-38l292 -189 -434 -32c-295,70 -52,169 -530,189l206 -268c-236,46 -303,196 -511,260l-58 -188c-157,86 -212,187 -455,199l141 -193c-266,28 -80,181 -635,246 -327,39 -444,89 -762,130l345 -414c-256,107 -319,419 -1148,687 -929,299 -578,187 -1295,-152 111,-164 103,-62 165,-290 -224,61 -122,54 -292,204 -339,-83 -588,-379 -1113,-531 73,-184 39,-87 145,-265 -182,38 -185,78 -305,160 -245,-53 -468,-92 -637,-277 -359,70 -737,-175 -1113,-217 81,-156 82,-99 172,-225 -348,21 -271,274 -694,124l-877 -222c-7,-22 -23,-25 -35,-36 -222,125 -203,88 -463,58 -134,-234 125,56 -58,-187 -295,220 -500,174 -868,196l-348 -2c-313,-71 -649,82 -1162,177 89,-170 105,-119 183,-300 -362,72 -175,177 -380,335 -87,67 -413,132 -548,153 85,-195 148,-186 220,-412 -500,74 -6,500 -879,592l163 -323c-404,181 -82,400 -647,598l282 -711c-309,97 -301,524 -384,807l-565 201c44,-200 75,-158 22,-305 -120,335 -215,447 -500,616 -244,145 -641,30 -956,16 -329,-15 -770,-8 -1101,0 -732,16 -416,-160 -747,-330 28,270 49,138 174,341 -396,21 -890,34 -1163,-88 -226,335 -535,-116 -776,-148l187 340 -453 136c-250,-307 -741,-3212 -736,-3771 6,-710 307,-1132 603,-1639 217,-371 654,-1133 932,-1306 -525,1345 -507,567 -434,2598 14,400 150,1532 363,1935 103,196 182,330 372,394 177,-145 184,-306 123,-548 -68,-268 -66,-319 -80,-623 -62,-1301 127,-1597 223,-2666 20,-231 65,-481 71,-691 3,-109 -12,-250 -8,-352 14,-424 -19,-172 134,-297 5,210 347,1655 427,1898 285,863 210,1676 510,1866 405,-455 173,-2392 146,-3087 13,11 31,25 41,34 9,9 28,24 39,35l286 429z"/><path class="fil0" d="M47687 35899c256,79 149,128 314,269 -184,-91 -225,-97 -314,-269zm-4653 -5955c286,1582 313,3259 432,4912 155,2130 216,1184 -325,3324 -72,285 -155,867 -265,1083 -375,-140 -637,-1815 -690,-2148 -324,-2021 -200,-3115 237,-5087 41,-187 90,-355 148,-548 80,-265 -89,-1283 463,-1536zm647 -534c631,186 1412,928 1832,1302 268,237 623,430 897,666 517,445 1431,2351 1705,2988l789 2403 -202 -159c-976,-694 -1301,-1513 -1965,-2372 -557,-721 -718,-1060 -1346,-1780 -580,-664 -505,-1238 -1095,-2033 -234,-315 -422,-663 -615,-1015zm-3696 8582c264,-2998 414,-2776 1089,-5115 239,-826 917,-2921 1425,-3614 168,-229 -36,-64 313,-158 71,-19 47,-35 161,-26 5,1 277,99 300,112 321,191 459,570 633,869 153,264 486,669 609,961 104,248 53,366 150,597 84,202 200,319 267,540 108,352 215,948 286,1274 473,2154 78,3273 148,4321 21,311 -5,982 -174,1278 -530,-96 -1373,-2441 -1435,-2973 -55,-470 5,-933 -70,-1426 -115,-758 -237,-1899 -278,-2671 -27,-520 -32,-901 -101,-1422l-316 -1203c-509,312 -871,3851 -1182,4627 -152,379 -238,709 -365,1082 -112,329 -302,665 -448,998 -225,511 -652,1739 -1012,1949zm1039 -13906c-280,-489 417,-2196 613,-2567 275,-518 633,-1021 986,-1510 275,-381 165,-106 400,-284 9,-7 22,-19 31,-27 9,-8 22,-20 30,-29 12,-12 47,-50 58,-64l90 -146c43,-64 -51,-97 238,-167 426,-101 1726,54 2162,240 324,138 842,467 1040,641 238,209 541,668 677,967 -448,-87 -937,-154 -1368,-267 -168,-44 -529,-102 -655,-166 -243,-124 -172,-291 -547,-283 66,206 -30,72 161,221 -240,-18 -370,-108 -452,189 319,-162 655,-110 836,167 834,1275 628,1704 646,2884l-209 -202c-20,-33 -74,-177 -103,-243l-648 -1259c-598,-959 -299,-507 -845,-1124 -169,-191 -70,-246 -347,-256 38,254 131,158 172,446l-147 1607c-162,579 -461,1235 -919,1491 113,-620 308,-1114 383,-1811 40,-378 202,-1648 90,-1922 -252,108 -92,1 -153,267l-227 855c-125,299 -716,1119 -908,1295 -379,349 -858,976 -1085,1057zm-3966 -3789c50,-491 235,-1195 333,-1709 216,-1130 297,-1425 373,-2562 108,-1604 885,-5819 1193,-7550 191,-1073 189,-746 434,-1468 -208,5 -214,39 -278,223 -135,385 -259,873 -289,1277 -85,1121 -479,2385 -645,3529l-742 5505c-91,599 -208,1154 -330,1763 -216,1080 -392,1205 -489,1615 423,-17 152,11 337,-270 332,-505 1900,-1221 2432,-1446 542,-228 1058,-525 1750,-477 645,45 1422,19 1669,500 -429,-85 -469,-272 -1050,-202 -1540,184 -2487,667 -3698,1519 -296,208 -390,385 -654,614l-656 618c-418,338 -322,353 -440,837 -66,269 -273,648 -376,949 -106,310 -194,674 -291,986 -201,648 -440,1266 -670,1935 -196,569 -400,1475 -537,2067 -82,353 -142,707 -229,1045 -136,527 -244,573 47,960 481,-90 1057,-537 1720,-699 628,-153 1344,-283 1964,-465 688,-202 1313,-359 2104,-335 811,25 1308,-282 2123,-197l-1688 352c-1051,288 -1882,710 -2791,1262 -444,270 -817,505 -1257,769 -411,247 -800,557 -1252,833 -1091,667 -1871,1466 -2716,2378l-1819 2291 -1113 1897c-293,465 -457,824 -696,1328 -511,1076 -737,1858 -954,3165 -154,929 -172,621 -255,1743 -45,618 -208,1491 558,1447 -302,-188 -402,-163 -416,-637 -29,-940 114,-1877 310,-2767 184,-837 296,-1636 655,-2415 110,-238 191,-399 303,-678 282,-697 1058,-1888 1473,-2579 272,-452 552,-766 848,-1179 805,-1120 2313,-2892 3533,-3648 208,-129 391,-249 588,-395 929,-688 2745,-1859 3793,-2286 626,-255 2541,-918 3244,-662 -987,1509 -1077,2552 -1703,4232 -293,787 -482,1484 -671,2346 -92,418 -74,920 -142,1355 -65,414 -179,846 -174,1267 388,-35 551,-542 691,-864 372,-852 883,-1900 1157,-2779 65,-211 98,-399 244,-547 -15,1534 -85,1545 168,3084 88,534 156,831 277,1326 88,362 217,944 576,990 112,-139 596,-2161 686,-2612l123 -362c107,533 384,1098 599,1567 142,310 213,417 362,682 148,263 167,484 603,437 214,-301 152,-1295 178,-1740 33,-554 118,-1192 120,-1735 2,-584 -177,-1167 -190,-1738 -12,-562 -228,-1019 -285,-1564 586,457 1135,1377 1624,2027 290,384 509,923 877,1202l-47 207c-5,69 -29,20 13,123 65,163 310,254 439,313 393,181 440,591 1122,735 -74,-576 -390,-875 -523,-1452 -325,-1407 -1024,-2649 -1711,-3845 -262,-455 -540,-612 -963,-888 -364,-237 -666,-571 -1007,-846 -156,-126 -367,-239 -557,-371 -561,-389 -1248,-596 -1810,-985 -318,158 31,112 -479,48 -568,-72 -1072,153 -1632,229 -419,57 -756,-23 -1232,53 -815,130 -3483,731 -4097,1047 -227,117 -628,357 -879,358 -79,-373 753,-3629 927,-4132 364,-1052 918,-2846 1296,-3741 199,-472 190,-467 490,-785 603,-641 1241,-1288 2064,-1701 687,-345 3251,-1467 3777,-451l-744 997c-832,1316 -551,858 -1103,2365 -344,940 -49,1377 -49,1376 2,-7 9,24 11,37 253,-69 87,30 262,-146 39,-39 82,-93 131,-152 105,-124 164,-210 277,-360 332,-441 730,-725 1154,-1336 86,-124 171,-232 257,-380l189 -355c5,-25 20,-28 31,-41 -39,551 -57,1138 -180,1652 -85,358 -375,1055 -219,1356 403,-29 797,-839 991,-1280 271,-615 210,-1314 258,-2041 473,237 1626,2718 1701,2721 210,9 132,51 336,148 129,-2871 -463,-2253 -636,-3220 637,-2 1668,499 2210,525l-661 -1106c-949,-1061 -2500,-1359 -3930,-1080 -477,-420 -627,-626 -1446,-644 -1294,-27 -1442,126 -2534,574 -246,101 -499,197 -724,318l-1346 801z"/><path class="fil0" d="M23117 21769c56,-40 -110,-118 190,-71 114,18 58,8 165,129 -48,32 129,79 -152,51 -208,-20 -77,2 -203,-109zm433 -116c-14,-115 77,-47 70,4 -17,111 -62,62 -70,-4zm1319 -747c-78,-174 -155,-264 -230,-422 105,39 201,52 256,169 27,56 26,54 24,129 -3,119 -21,71 -50,124zm-1429 -427c72,-132 392,-277 510,-339l-51 237c27,248 79,159 151,200 65,37 310,130 433,153 -33,-34 -74,-80 -122,-126 -204,-192 -219,-144 -124,-310 117,92 161,217 232,319 427,619 455,384 637,524 153,117 136,165 160,392 -166,-133 -277,-354 -635,-182 -127,60 -326,211 -332,363 -5,131 22,82 54,141 342,-40 90,62 219,-172 186,-337 358,-253 572,-26 -216,131 -526,190 -759,249 -27,7 -116,29 -137,32 -177,30 -257,30 -432,18 43,-191 45,-114 84,-317 -725,-455 -455,-363 -801,-199 -106,51 -174,44 -321,93l165 66c-200,125 -85,148 -226,188l-110 -480 280 41c85,-143 106,-226 210,-309 143,-113 12,49 132,-97 175,-210 -68,-100 351,-341 336,-192 209,-147 274,-264l-414 146zm1051 -290c-71,-244 32,-144 51,-154l69 253c-78,-23 -95,-13 -120,-99zm-405 -71l-46 128 46 -128zm-620 -14l-211 201 211 -201zm-228 -333c3,-22 13,-27 19,-41 -18,293 -92,461 -213,625l194 -584zm1456 34c63,144 134,236 64,387 -90,-138 -122,-242 -64,-387zm-766 22c-10,180 -105,218 -220,290l220 -290zm-848 -246c9,17 122,-75 0,137 -126,-88 -56,-59 0,-137zm678 -51c-11,227 40,88 -87,140l87 -140zm653 -84c12,15 163,-9 20,282 -47,-101 -52,-73 -58,-164 -8,-111 9,-59 38,-118zm-693 -642c50,51 39,16 84,103 166,321 -3,317 -28,335l-40 -87c-15,-55 -14,-41 -21,-104 -12,-89 1,-160 5,-247zm-405 296c-52,203 5,206 -194,212l194 -212zm1503 -264c146,131 80,44 111,198 -120,-67 -148,-73 -111,-198zm-2026 -64c4,6 159,-99 -13,117l13 -117zm2489 -73c-183,-91 -111,-64 -119,-345 109,100 177,192 119,345zm-2080 1c117,-141 -11,-183 221,-62 -58,41 -2,23 -101,54 -47,15 -101,7 -120,8zm1188 155l-204 -405c177,117 176,231 204,405zm-1266 -368l-81 112 81 -112zm-211 -81c-61,234 15,103 -111,170 30,-179 67,-134 111,-170zm423 -112c3,-56 17,-20 58,-20 223,-1 -13,-152 24,13 33,148 -84,50 -82,7zm1625 383c-44,-80 -120,-203 -174,-288 -57,-91 -119,-158 -174,-247 243,100 272,255 348,535zm-1687 -614c5,-81 42,-77 57,2 8,42 -65,124 -57,-2zm398 -58c5,-118 61,-40 69,-9 19,70 -71,62 -69,9zm1092 52c-134,-50 -259,-70 -333,-198 194,36 246,25 333,198zm-581 -254c187,297 147,103 269,359 -224,-68 -66,-45 -169,-139 -162,-148 41,-54 -236,-105 105,277 174,182 237,415 -439,-312 -312,-205 -359,-407l258 -123zm-750 24c152,-77 341,-97 542,-75 -118,2 -139,41 -255,84 -226,86 -126,93 -287,-9zm-904 3968c-827,-116 -547,-333 -880,-470 -176,714 1246,659 1849,768 1090,198 1599,-424 2248,-433 117,-222 92,-214 288,-356 79,-56 97,-61 178,-109 188,-114 107,-2 184,-179 -12,-6 18,-209 -372,105 -75,60 -175,172 -296,221 -68,-372 -14,-970 -70,-1423 -83,-667 13,-1853 -833,-2138 -501,-168 -719,-273 -1318,-164 -259,47 -965,234 -1055,398l-241 507c-249,467 -91,1516 37,2002l157 934c31,112 77,128 124,337z"/><path class="fil0" d="M5946 44435c-95,-168 -123,-402 -120,-604l108 -1968c20,-430 77,-852 154,-1249 74,-374 202,-797 197,-1172 -248,51 -270,236 -370,419l-789 1472c-379,701 -710,1196 -858,2160 19,-32 19,-3 62,-115 35,-89 12,-38 37,-132 30,-111 28,-120 62,-230 170,-557 421,-1210 772,-1665 423,-549 228,-479 437,-725l338 -308c-10,732 -211,1575 -242,2359 -18,467 -165,2021 38,2291 28,-62 14,28 27,-108 1,-12 -9,-109 -11,-128 135,23 93,23 202,16 13,-1 35,-3 44,-20l506 -1574c96,-329 298,-1302 531,-1435 -2,1299 -22,1090 293,1971l177 689c89,218 268,526 431,599 189,-140 203,-1132 264,-1619 52,-422 57,-1354 273,-1655 -196,77 -127,74 -233,683 -41,232 -27,541 -61,806 -41,330 -136,1254 -301,1490 -361,-290 -547,-1528 -647,-2121 -215,-1267 283,-2166 -105,-2373 -169,304 -4,794 -174,1209 -398,969 -732,2374 -922,2841 -48,116 4,10 -59,123 -6,9 -25,46 -30,36 -4,-9 -20,25 -31,37z"/><path class="fil0" d="M19879 18227c-10,340 13,378 249,461 135,-250 -220,138 231,-398l120 117c83,105 60,84 103,179l-172 154c-910,160 -630,-620 -167,-838 220,77 182,33 246,230l-610 95zm943 143c148,359 -110,915 -325,1046 -308,187 -944,215 -1229,29 -474,-308 -391,-1979 758,-1674 -1,1 -764,800 -175,1089 164,80 501,80 662,-6 197,-104 180,-311 309,-484zm178 -249c-245,-282 -198,-334 -619,-483 -1667,-590 -2051,1793 -934,2094 436,118 997,23 1289,-306 356,-400 264,-993 264,-1305z"/><path class="fil0" d="M27987 18272c354,184 66,227 360,368 10,-12 24,-46 26,-37 33,95 -40,-263 300,-356 38,631 -710,674 -686,25zm150 -45l85 -272c102,3 110,-15 219,16 160,47 108,55 157,92l-461 164zm696 86c231,596 226,545 -123,981 -158,197 -293,595 -962,415 -874,-234 -516,-1633 185,-1777 -70,333 -198,759 162,907 169,69 371,31 518,-48 208,-111 218,-177 220,-478zm-680 -625c-1331,172 -1549,2333 -41,2206 962,-80 1274,-920 756,-1891 -160,-300 -314,-367 -715,-315z"/><path class="fil0" d="M19491 33239c126,-192 180,-669 58,-937 -90,-199 -150,-89 -70,-355 64,-213 177,-149 -89,-253 -78,159 -52,536 -287,827l3 -814c-310,429 -58,1049 -58,1837 -249,-246 -52,-167 -306,-196 -182,412 19,1006 83,1433 49,333 -139,263 68,615 132,224 157,272 248,507l400 59c53,236 141,586 326,674 -53,-166 -161,-367 -180,-517 -83,-677 -445,-963 -328,-1702 -225,248 -160,302 -47,687 70,237 204,488 236,736 -508,-19 -514,-346 -591,-810l66 -65c123,-139 79,-65 89,-188 -69,155 11,45 -151,105 -28,-271 -91,-475 -99,-762 -6,-214 -184,-348 13,-613 271,606 12,450 211,736 26,-269 -41,-401 58,-555 76,49 60,-57 171,247 35,96 60,155 94,253 67,191 98,316 198,473 59,-117 -209,-648 -293,-964 -221,-841 -127,-385 -49,-1168l110 356c77,-84 30,74 66,-114l-2 -461c101,163 101,342 32,565 -53,174 -198,176 20,364z"/><path class="fil0" d="M23207 22927c68,245 271,150 403,327l41 117c1,5 4,21 8,30 327,-33 1701,-20 1527,-726 -333,-26 -177,294 -908,469 -687,165 -772,-397 -1071,-217z"/><path class="fil0" d="M31509 24817l-79 6c-9,-1 -32,-1 -41,-2 -11,0 -56,-12 -127,-14l-156 178c-56,-117 -11,-93 -149,-138l-14 466c166,-123 145,-210 243,-302 99,-92 -17,-5 131,-84 -9,405 -83,655 -189,1006 -156,519 -363,619 -292,821 218,-153 385,-545 477,-812 84,-247 12,-152 207,-235l-53 -42c-7,-3 -42,-13 -61,-17l266 -1178c-93,122 -40,34 -101,178 -26,62 -41,122 -62,169z"/><path class="fil0" d="M23641 28544c193,-69 585,-333 658,-478 -248,-101 -639,1 -850,96 208,57 101,39 175,99 -206,58 -209,112 -382,169 -254,83 -581,146 -910,462 12,7 -12,121 179,15 87,-48 9,-43 152,-144l1256 -545c-123,305 -68,66 -278,326z"/><path class="fil0" d="M30733 21586l-132 502c113,-98 -33,-112 211,-342 65,384 -30,409 -41,780 67,-85 -10,55 71,-114 2,-2 27,-75 35,-93 49,535 -68,1395 75,1611 258,-227 20,-66 7,-477 -6,-210 12,-480 12,-700 0,-232 -9,-465 -11,-698 -3,-502 99,-252 181,-571 -344,152 25,204 -408,102z"/><path class="fil0" d="M24496 29103c77,91 -175,88 121,56l2113 -1087c-426,7 -192,-86 -616,150l-1618 881z"/><path class="fil0" d="M36040 17251c-176,-167 -300,-150 -398,-388 379,37 374,228 697,344 -104,-189 -185,-194 -378,-334 -334,-243 -587,108 -731,-370 456,-78 700,186 1004,296 -112,-183 -653,-577 -1049,-358l-64 30c-8,3 -59,4 -127,28 57,103 -11,33 105,137 168,153 764,575 941,615z"/><path class="fil0" d="M29914 21376c169,-94 768,-1071 818,-1216 93,-267 1,-206 -11,-225 -71,253 -265,573 -424,774 -154,194 -677,243 -976,276l200 -271c-193,84 -232,188 -344,360 23,12 -31,136 79,-75l202 141c220,-148 404,-169 677,-229 -74,211 -161,204 -221,465z"/><path class="fil0" d="M24384 29030c352,-65 348,-166 585,-273 301,-135 77,63 252,-153 295,-366 788,-452 1067,-882 -255,128 -268,195 -504,343 -159,99 -290,222 -440,315 -290,180 -766,366 -960,650z"/><path class="fil0" d="M20424 28660c159,62 314,8 433,-132 333,-392 720,-296 1184,-621 -25,-16 103,-186 -405,60 -292,142 -860,401 -1130,609 -62,48 -44,38 -82,84z"/><path class="fil0" d="M34847 13822c237,-49 -35,-96 649,-364 536,-211 376,-119 720,-205 181,-46 60,-12 137,-54 -39,-27 89,-184 -415,8 -138,52 -262,88 -426,153 -414,163 -628,204 -665,462z"/><path class="fil0" d="M22441 28257c-252,-2 -882,306 -1071,461 160,115 342,-20 552,-84 24,-71 -259,19 137,-184 158,-81 256,-102 382,-193z"/><path class="fil0" d="M23353 37726c-669,-182 -880,-678 -1084,-1129 0,0 -211,-11 77,441 75,118 170,204 273,305 157,153 468,397 734,383z"/><path class="fil0" d="M29920 30402c211,-43 36,53 220,-122 334,-315 676,-699 905,-1086 -231,116 -403,473 -581,656 -65,67 -241,292 -305,328 -150,85 -159,-56 -239,224z"/><path class="fil0" d="M16714 31208c280,-169 388,-376 699,-535 94,11 26,121 121,17 185,-201 -8,-188 -11,-194 -368,187 -645,364 -809,712z"/><path class="fil0" d="M29965 16333c170,-132 264,-303 273,-320 77,-135 73,-395 19,-495 -169,87 -118,118 -168,342 -35,158 -72,311 -124,473z"/><path class="fil0" d="M19961 25707c134,66 64,55 225,5l13 -93c68,-267 577,-410 641,-532 4,-8 14,-25 15,-33l-24 -83c-4,-12 -21,-33 -31,-50 -86,424 -522,218 -839,786z"/><path class="fil0" d="M15515 28066c109,3 1167,-209 1326,-560 -178,65 -143,78 -304,167l-1022 393z"/><path class="fil0" d="M30243 26693c112,-75 24,12 100,-87 169,-220 327,-572 393,-854 -168,90 -440,719 -493,941z"/><path class="fil0" d="M17014 31718c127,-76 150,-136 269,-227 166,-126 99,-65 243,-221 189,-206 352,-198 470,-484 -337,82 -368,246 -428,362 -112,220 -341,315 -554,570z"/><path class="fil0" d="M30154 23076c159,-127 363,-293 426,-578 -586,190 -260,209 -258,224 23,182 -58,41 -168,354z"/><path class="fil0" d="M34166 17252c82,52 329,91 488,176 185,99 273,202 442,271 -125,-121 -648,-619 -930,-447z"/><path class="fil0" d="M30592 34089c179,-106 322,-236 378,-458 -194,55 -139,27 -258,172 -155,189 -73,-50 -120,286z"/><path class="fil0" d="M26442 35617c224,359 164,418 561,638 241,134 513,243 805,135 -377,-24 -776,35 -1143,-488 -109,-155 -50,-204 -223,-285z"/><path class="fil0" d="M29907 34800c185,-98 532,-449 646,-639 -215,107 -539,417 -646,639z"/><path class="fil0" d="M15732 31217c111,-131 51,-26 144,-213 -286,127 -433,383 -555,667l411 -454z"/><path class="fil0" d="M30222 19892c138,-246 392,-547 534,-885 -161,25 -5,-150 -307,403 -90,164 -154,326 -227,482z"/><path class="fil0" d="M18281 31537c113,-53 535,-365 582,-491 -222,44 -511,335 -582,491z"/><path class="fil0" d="M22441 28257c204,-49 456,-104 580,-234 -105,-41 -162,-32 -315,33 -127,54 -193,131 -265,201z"/><path class="fil0" d="M33169 18468l723 243c-100,-94 -194,-128 -326,-192 -36,-17 -162,-85 -206,-95 -278,-60 -151,12 -191,44z"/><path class="fil0" d="M25332 25299c106,-222 377,-309 557,-497 -185,2 -498,285 -641,441l84 56z"/><path class="fil0" d="M29573 14916l189 -655c11,-138 20,-82 -48,-161 -99,179 -116,565 -141,816z"/><path class="fil0" d="M17114 27966c46,20 11,38 112,30 103,-9 49,-10 127,-33l794 -265c-303,88 -475,60 -1033,268z"/><path class="fil0" d="M20008 32184c185,-133 348,-540 403,-628 61,-97 88,-96 161,-191l526 -774c-163,87 -333,456 -426,574l-664 1019z"/><path class="fil0" d="M16348 34815c-209,54 -459,313 -472,515l472 -515z"/><path class="fil0" d="M27421 13022c47,-107 59,-212 109,-341 -89,43 -152,59 -193,151 -100,226 42,170 84,190z"/><path class="fil0" d="M30644 24742c101,-39 89,-151 102,-274 129,128 73,-67 126,247l28 -470c-119,127 -175,298 -256,497z"/><path class="fil0" d="M25332 25299c-124,89 -166,36 -298,176 12,5 30,2 35,15 29,78 319,-131 358,-153l-95 -38z"/><path class="fil0" d="M23651 25364l459 -221c-174,-89 -388,106 -459,221z"/><path class="fil0" d="M32568 12625c-170,139 -428,299 -486,444 208,-74 78,-48 236,-183 184,-157 113,-119 250,-261z"/><path class="fil0" d="M20399 30708c166,-41 334,-220 454,-376 -341,106 -228,306 -454,376z"/><path class="fil0" d="M21806 25810c197,-81 66,-180 255,-299 -194,74 -319,162 -255,299z"/><path class="fil0" d="M31445 24222c52,18 81,8 129,45l121 141c8,11 22,30 34,43l-30 -268 -254 39z"/><path class="fil0" d="M16883 19911l-54 -312c-19,33 -237,-31 22,287 5,7 22,16 32,25z"/><path class="fil0" d="M22961 25938l235 -1c-257,-177 -219,15 263,-439 -142,34 -391,303 -498,440z"/><path class="fil0" d="M30711 25668c153,-96 193,-125 239,-309 -153,84 -175,163 -239,309z"/><path class="fil0" d="M31772 31391c219,-112 158,-26 230,-247 -174,95 -149,80 -230,247z"/><path class="fil0" d="M22594 25106c134,-163 152,-39 262,-271 -81,41 -95,25 -189,119 -76,76 -70,112 -73,152z"/><path class="fil0" d="M19751 25285c159,-113 279,-210 410,-321 -251,47 -20,3 -226,150 -162,115 -120,-67 -184,171z"/><path class="fil0" d="M28010 28606c185,-81 161,-77 260,-214 -143,11 -78,-14 -167,80 -37,38 -68,101 -93,134z"/><path class="fil0" d="M25184 25872c124,57 454,-90 611,-157l-611 157z"/><path class="fil0" d="M16299 31050c-173,54 -217,139 -265,313l265 -313z"/><path class="fil0" d="M16486 25788c201,11 434,0 593,-93l-593 93z"/><path class="fil0" d="M19173 25790c296,-32 78,81 171,-157 -108,56 -173,46 -171,157z"/><path class="fil0" d="M30651 23175c-15,-65 113,-380 127,-603 -76,148 -132,422 -127,603z"/><path class="fil0" d="M21206 30473c90,-143 264,-256 390,-443 -87,59 -146,104 -234,210l-156 233z"/><path class="fil0" d="M22322 24146c233,-10 162,54 218,-96 -74,10 -36,-9 -116,23 -88,34 -66,43 -102,73z"/><path class="fil0" d="M19475 12807c124,-37 58,11 87,-194 -32,45 -35,26 -69,111 -34,82 -3,7 -18,83z"/><path class="fil0" d="M26687 25417c12,8 -73,116 142,0 -17,-9 53,-98 -142,0z"/><path class="fil0" d="M30547 18529l34 -150c-208,244 -40,141 -34,150z"/><path class="fil0" d="M30271 18962c92,-178 117,-86 198,-374l-198 374z"/><path class="fil0" d="M16315 31671c-117,70 -81,16 -92,183l92 -183z"/><path class="fil0" d="M15866 31269c75,-70 -71,-14 -79,3 -39,78 50,24 79,-3z"/><path class="fil0" d="M30835 34097l-85 102c154,-5 58,56 85,-102z"/><path class="fil0" d="M22180 25359c-7,67 58,46 51,4 -12,-72 -50,-18 -51,-4z"/><path class="fil0" d="M19686 34798c36,73 56,93 39,17 0,-1 -75,-87 -39,-17z"/><polygon class="fil0" points="26723,28775 27187,28488 "/><polygon class="fil0" points="18680,23620 18557,23705 "/><polygon class="fil0" points="16714,31208 16632,31319 "/><polygon class="fil0" points="30524,22373 30580,22182 "/><polygon class="fil0" points="26338,25540 26595,25504 "/></g><text x="0" y="50815" fill="#000000" font-size="5px" font-weight="bold" font-family="'Helvetica Neue', Helvetica, Arial-Unicode, Arial, Sans-serif">Created by Alex Muravev</text><text x="0" y="50820" fill="#000000" font-size="5px" font-weight="bold" font-family="'Helvetica Neue', Helvetica, Arial-Unicode, Arial, Sans-serif">from the Noun Project</text></svg>