<?xml version="1.0" encoding="UTF-8" standalone="no"?>
<svg
   xmlns:dc="http://purl.org/dc/elements/1.1/"
   xmlns:cc="http://creativecommons.org/ns#"
   xmlns:rdf="http://www.w3.org/1999/02/22-rdf-syntax-ns#"
   xmlns:svg="http://www.w3.org/2000/svg"
   xmlns="http://www.w3.org/2000/svg"
   xmlns:sodipodi="http://sodipodi.sourceforge.net/DTD/sodipodi-0.dtd"
   xmlns:inkscape="http://www.inkscape.org/namespaces/inkscape"
   version="1.1"
   x="0px"
   y="0px"
   viewBox="0 0 100 125"
   enable-background="new 0 0 100 100"
   xml:space="preserve"
   id="svg2"
   inkscape:version="0.91 r13725"
   sodipodi:docname="flask.svg"
   inkscape:export-filename="/home/dave/Downloads/flask.png"
   inkscape:export-xdpi="230.39999"
   inkscape:export-ydpi="230.39999"><metadata
     id="metadata16"><rdf:RDF><cc:Work
         rdf:about=""><dc:format>image/svg+xml</dc:format><dc:type
           rdf:resource="http://purl.org/dc/dcmitype/StillImage" /><dc:title></dc:title></cc:Work></rdf:RDF></metadata><defs
     id="defs14" /><sodipodi:namedview
     pagecolor="#ffffff"
     bordercolor="#666666"
     borderopacity="1"
     objecttolerance="10"
     gridtolerance="10"
     guidetolerance="10"
     inkscape:pageopacity="0"
     inkscape:pageshadow="2"
     inkscape:window-width="3200"
     inkscape:window-height="1764"
     id="namedview12"
     showgrid="false"
     inkscape:zoom="5.3400704"
     inkscape:cx="-156.77458"
     inkscape:cy="0.70776317"
     inkscape:window-x="0"
     inkscape:window-y="36"
     inkscape:window-maximized="1"
     inkscape:current-layer="svg2" /><rect
     fill="none"
     width="100"
     height="100"
     id="rect4" /><path
     d="m 40.344059,76.415433 c -2.107086,-0.543293 -4.261986,0.728976 -4.805778,2.837998 -0.542794,2.105148 0.728755,4.25883 2.835841,4.802123 2.104181,0.542545 4.258831,-0.728756 4.801375,-2.832936 0.544042,-2.10999 -0.728226,-4.26489 -2.831438,-4.807185 z m -1.26111,4.891034 c -0.587775,-0.151553 -0.947632,-0.754496 -0.795331,-1.345176 0.152302,-0.590682 0.760087,-0.94929 1.347863,-0.797738 0.587776,0.151553 0.943479,0.758588 0.791177,1.34927 -0.152302,0.590681 -0.755932,0.945197 -1.343709,0.793644 z m -8.55741,-12.638849 c -2.106116,-0.543044 -4.260767,0.728257 -4.804809,2.838247 -0.542544,2.10418 0.729006,4.257862 2.835123,4.800906 2.10418,0.542544 4.25883,-0.728756 4.801125,-2.831968 0.544291,-2.110959 -0.72629,-4.264391 -2.831439,-4.807185 z m -1.261109,4.891033 c -0.588744,-0.151802 -0.946914,-0.753277 -0.794612,-1.343958 0.152302,-0.590682 0.75815,-0.94979 1.346893,-0.797987 0.588745,0.151803 0.944448,0.758837 0.792147,1.349519 -0.152302,0.590681 -0.754715,0.944479 -1.344428,0.792426 z M 52.139325,72.20714 c -2.105149,-0.542794 -4.259081,0.729724 -4.801376,2.832936 -0.544291,2.110959 0.727259,4.264641 2.831439,4.807185 2.104181,0.542543 4.258831,-0.728756 4.802873,-2.838747 0.542295,-2.103211 -0.728756,-4.25883 -2.832936,-4.801374 z m -1.261359,4.892001 c -0.590681,-0.152302 -0.944448,-0.758838 -0.792146,-1.349518 0.152052,-0.589713 0.753028,-0.945947 1.344678,-0.793395 0.589712,0.152052 0.945696,0.753996 0.793394,1.344677 -0.15327,0.590432 -0.756214,0.950288 -1.345926,0.798236 z M 69.027699,85.586474 60.775873,58.264916 C 59.180952,52.9917 58.998691,44.017993 60.37465,38.681528 l 3.661486,-14.200555 5.903905,1.52227 c 1.518342,0.39149 3.066176,-0.520951 3.457916,-2.040261 0.391741,-1.519309 -0.521919,-3.066424 -2.04026,-3.457915 L 63.41352,18.456732 69.478817,8.8033606 C 69.721524,8.4187788 69.76456,7.9434702 69.597397,7.5223983 69.427331,7.1005772 69.069719,6.7853066 68.630097,6.6719536 L 50.402259,1.9720696 C 49.96167,1.8584674 49.495231,1.9612651 49.146274,2.2492604 48.795381,2.5367559 48.604191,2.9738639 48.628742,3.4273563 l 0.642323,11.3828707 -7.943208,-2.048084 c -1.51834,-0.39149 -3.066174,0.520951 -3.457915,2.04026 -0.39174,1.51931 0.521919,3.066425 2.04026,3.457916 l 5.902938,1.522019 -3.661735,14.201523 c -1.375959,5.336465 -5.874604,13.103242 -9.82365,16.95216 l -20.428322,19.91528 c -2.814051,2.743282 -3.9761723,6.016803 -3.1866563,8.9746 0.788018,2.963607 3.4213933,5.222639 7.2269293,6.203862 L 58.151133,96.9136 c 3.8036,0.980726 7.202918,0.277171 9.325698,-1.935916 2.121284,-2.207274 2.686913,-5.634594 1.550868,-9.39121 z M 66.04271,8.936672 60.527898,17.7127 52.156688,15.554259 51.57296,5.2057773 66.04271,8.936672 Z M 36.292264,54.997488 c 4.721981,-4.599714 9.711708,-13.213711 11.357566,-19.59694 l 3.661485,-14.200555 7.226645,1.863325 -3.661735,14.201523 c -1.645858,6.383229 -1.443401,16.335985 0.462834,22.644725 l 3.39676,11.233866 C 57.864623,70.713293 57.19326,70.253096 56.503779,69.783064 54.998581,68.759848 53.440058,67.69913 50.04703,66.824269 46.655939,65.949906 44.779799,66.125027 42.963626,66.291857 41.319742,66.447345 39.764439,66.595723 36.854609,65.84545 33.944777,65.095176 32.657065,64.213752 31.293317,63.282773 30.643166,62.840438 29.97365,62.393109 29.161454,61.954431 l 7.13081,-6.956943 z M 63.382319,91.047929 C 62.72828,91.726111 61.304753,91.86406 59.56757,91.416143 L 17.357112,80.532556 c -1.735247,-0.447418 -2.916778,-1.256026 -3.158194,-2.166125 -0.241667,-0.90913 0.380978,-2.198506 1.663528,-3.447853 l 11.12723,-10.849412 c 1.088541,0.492375 1.902285,1.017168 2.70279,1.561266 1.5037,1.029026 3.061256,2.089494 6.451378,2.963606 3.393028,0.874862 5.2682,0.699492 7.084901,0.526601 1.643635,-0.154518 3.19769,-0.298055 6.107521,0.452218 2.915641,0.751772 4.204601,1.628355 5.569567,2.558615 1.246196,0.854196 2.547837,1.721656 4.879767,2.494352 l 3.805815,12.59924 c 0.517571,1.713494 0.441318,3.142717 -0.209096,3.822865 z"
     id="path6"
     inkscape:connector-curvature="0" /><path
     style="fill:#0000ff"
     d="M 59.439795,91.296511 C 58.873323,91.145327 49.393111,88.702024 38.372657,85.866948 27.352203,83.031871 17.768969,80.537783 17.07658,80.324531 c -1.681529,-0.517902 -2.767276,-1.430962 -2.767276,-2.327145 0,-0.356559 0.160324,-0.96094 0.356275,-1.343068 0.443438,-0.864757 12.060751,-12.398743 12.488317,-12.398743 0.09957,0 0.979151,0.518743 1.954629,1.152762 4.947303,3.215538 7.63915,3.936065 14.413877,3.858167 3.909237,-0.04495 4.327097,-0.0172 5.787888,0.384424 2.070542,0.56926 3.548553,1.254351 5.671025,2.628647 1.496493,0.968975 3.479313,2.002756 4.45848,2.324513 0.185736,0.06103 0.942628,2.272904 2.23421,6.529045 2.504351,8.252566 2.63379,9.529364 1.033843,10.197864 -0.795445,0.332357 -1.938726,0.320294 -3.268053,-0.03449 z M 40.540741,84.079016 c 2.936502,-0.879797 3.758896,-4.797156 1.43538,-6.83723 -2.281343,-2.003046 -5.707264,-0.913411 -6.524579,2.075182 -0.795347,2.908261 2.1325,5.647896 5.089199,4.762048 z m 12.857173,-4.714463 c 0.418697,-0.290157 0.973714,-0.933709 1.261888,-1.463181 1.020728,-1.875413 0.342552,-4.31649 -1.483816,-5.340963 -1.606493,-0.901137 -3.510903,-0.653683 -4.821987,0.626556 -2.002573,1.95546 -1.394328,5.362803 1.16217,6.510399 1.053726,0.473011 2.954049,0.310082 3.881745,-0.332811 z m -22.086992,-3.29423 c 1.320516,-0.679242 2.28838,-2.183414 2.285472,-3.551884 -0.0037,-1.74956 -1.447943,-3.566329 -3.120102,-3.924943 -1.871514,-0.401367 -3.619681,0.407052 -4.440006,2.05323 -1.046355,2.09976 -0.20608,4.606265 1.849618,5.517333 0.849011,0.376274 2.604681,0.328225 3.425018,-0.09374 z"
     id="path3344"
     inkscape:connector-curvature="0" /></svg>